<svg width="39" height="38" viewBox="0 0 39 38" fill="none" xmlns="http://www.w3.org/2000/svg">
<path d="M19.2 0.23291C8.596 0.23291 0 8.49251 0 18.6815C0 28.8706 8.596 37.1302 19.2 37.1302C29.804 37.1302 38.4 28.8706 38.4 18.6815C38.4 8.49251 29.804 0.23291 19.2 0.23291ZM14.5 26.3281H10.612V14.3057H14.5V26.3281ZM12.532 12.8299C11.304 12.8299 10.51 11.9939 10.51 10.96C10.51 9.90498 11.328 9.09401 12.582 9.09401C13.836 9.09401 14.604 9.90498 14.628 10.96C14.628 11.9939 13.836 12.8299 12.532 12.8299ZM28.7 26.3281H24.812V19.6655C24.812 18.1146 24.248 17.0615 22.842 17.0615C21.768 17.0615 21.13 17.7745 20.848 18.4605C20.744 18.7046 20.718 19.0505 20.718 19.3945V26.3262H16.828V18.1396C16.828 16.6387 16.778 15.3838 16.726 14.3038H20.104L20.282 15.9738H20.36C20.872 15.1897 22.126 14.0329 24.224 14.0329C26.782 14.0329 28.7 15.6798 28.7 19.2196V26.3281Z" fill="black"/>
</svg>
